<svg xmlns="http://www.w3.org/2000/svg" viewBox="0 0 100 100">
<rect width="100" height="100" rx="18" fill="#0f172a"/>
<rect x="14" y="52" width="72" height="24" rx="6" fill="#e11d48"/>
<path d="M24 52 Q28 34 44 32 L56 32 Q72 34 76 52Z" fill="#f43f5e"/>
<rect x="30" y="38" width="16" height="12" rx="3" fill="#bfdbfe"/>
<rect x="54" y="38" width="16" height="12" rx="3" fill="#bfdbfe"/>
<circle cx="28" cy="76" r="10" fill="#1e293b"/>
<circle cx="28" cy="76" r="6" fill="#475569"/>
<circle cx="28" cy="76" r="3" fill="#94a3b8"/>
<circle cx="72" cy="76" r="10" fill="#1e293b"/>
<circle cx="72" cy="76" r="6" fill="#475569"/>
<circle cx="72" cy="76" r="3" fill="#94a3b8"/>
<rect x="14" y="60" width="72" height="3" rx="1.5" fill="#9f1239"/>
<rect x="78" y="54" width="8" height="5" rx="2" fill="#fbbf24"/>
<rect x="14" y="54" width="8" height="5" rx="2" fill="#f97316"/>
<rect x="42" y="28" width="16" height="5" rx="2" fill="#e11d48"/>
</svg>