<svg xmlns="http://www.w3.org/2000/svg" viewBox="0 0 100 100">
<rect width="100" height="100" rx="18" fill="#0a1628"/>
<rect x="30" y="60" width="40" height="14" rx="4" fill="#6366f1"/>
<path d="M30 60 L36 44 L64 44 L70 60Z" fill="#818cf8"/>
<rect x="38" y="48" width="10" height="10" rx="2" fill="#c7d2fe"/>
<rect x="52" y="48" width="10" height="10" rx="2" fill="#c7d2fe"/>
<rect x="30" y="60" width="40" height="4" rx="2" fill="#4f46e5"/>
<circle cx="36" cy="74" r="7" fill="#1e1b4b"/>
<circle cx="36" cy="74" r="4" fill="#3730a3"/>
<circle cx="64" cy="74" r="7" fill="#1e1b4b"/>
<circle cx="64" cy="74" r="4" fill="#3730a3"/>
<rect x="10" y="20" width="80" height="22" rx="11" fill="#4f46e5"/>
<path d="M28 25 Q50 18 72 25 Q50 22 28 25Z" fill="#6366f1"/>
<rect x="18" y="22" width="64" height="14" rx="7" fill="#6366f1"/>
<circle cx="50" cy="29" r="4" fill="#a5b4fc"/>
<circle cx="36" cy="29" r="3" fill="#818cf8"/>
<circle cx="64" cy="29" r="3" fill="#818cf8"/>
</svg>