<svg xmlns="http://www.w3.org/2000/svg" viewBox="0 0 100 100">
<rect width="100" height="100" rx="18" fill="#0a1a2e"/>
<rect x="14" y="50" width="72" height="38" fill="#334155"/>
<rect x="14" y="50" width="72" height="6" fill="#1e293b"/>
<polygon points="50,12 82,50 18,50" fill="#1e293b"/>
<polygon points="50,16 78,50 22,50" fill="#334155"/>
<rect x="26" y="58" width="20" height="16" rx="2" fill="#0ea5e9"/>
<rect x="54" y="58" width="20" height="16" rx="2" fill="#0ea5e9"/>
<line x1="36" y1="58" x2="36" y2="74" stroke="#38bdf8" stroke-width="1.5"/>
<line x1="26" y1="66" x2="46" y2="66" stroke="#38bdf8" stroke-width="1.5"/>
<line x1="64" y1="58" x2="64" y2="74" stroke="#38bdf8" stroke-width="1.5"/>
<line x1="54" y1="66" x2="74" y2="66" stroke="#38bdf8" stroke-width="1.5"/>
<rect x="40" y="68" width="20" height="20" rx="2" fill="#1e3a5f"/>
<rect x="44" y="74" width="5" height="8" rx="1" fill="#38bdf8"/>
<rect x="51" y="74" width="5" height="8" rx="1" fill="#38bdf8"/>
<circle cx="73" cy="30" r="6" fill="#fbbf24"/>
<line x1="73" y1="20" x2="73" y2="30" stroke="#fbbf24" stroke-width="1.5" opacity="0.6"/>
<line x1="63" y1="30" x2="73" y2="30" stroke="#fbbf24" stroke-width="1.5" opacity="0.6"/>
<line x1="77" y1="22" x2="73" y2="30" stroke="#fbbf24" stroke-width="1.5" opacity="0.6"/>
</svg>