<svg xmlns="http://www.w3.org/2000/svg" viewBox="0 0 100 100">
<rect width="100" height="100" rx="18" fill="#0c1a2e"/>
<polygon points="50,14 86,46 14,46" fill="#ef4444"/>
<polygon points="50,18 82,46 18,46" fill="#f87171"/>
<rect x="18" y="46" width="64" height="40" fill="#e2e8f0"/>
<rect x="18" y="46" width="64" height="4" fill="#cbd5e1"/>
<rect x="40" y="62" width="20" height="24" rx="2" fill="#92400e"/>
<rect x="44" y="66" width="5" height="10" rx="1" fill="#fbbf24"/>
<rect x="51" y="66" width="5" height="10" rx="1" fill="#fbbf24"/>
<rect x="24" y="54" width="18" height="14" rx="3" fill="#93c5fd"/>
<rect x="58" y="54" width="18" height="14" rx="3" fill="#93c5fd"/>
<line x1="33" y1="54" x2="33" y2="68" stroke="#60a5fa" stroke-width="1.5"/>
<line x1="24" y1="61" x2="42" y2="61" stroke="#60a5fa" stroke-width="1.5"/>
<line x1="67" y1="54" x2="67" y2="68" stroke="#60a5fa" stroke-width="1.5"/>
<line x1="58" y1="61" x2="76" y2="61" stroke="#60a5fa" stroke-width="1.5"/>
<rect x="47" y="62" width="2" height="3" rx="1" fill="#fde68a"/>
</svg>