<svg xmlns="http://www.w3.org/2000/svg" viewBox="0 0 100 100">
<rect width="100" height="100" rx="18" fill="#0c1a3e"/>
<rect x="0" y="60" width="100" height="40" rx="0" fill="#1e3a8a" opacity="0.6"/>
<polygon points="20,60 30,30 40,50 50,20 60,45 70,32 80,60" fill="#1d4ed8"/>
<polygon points="20,60 30,34 40,52 50,24 60,48 70,36 80,60" fill="#3b82f6"/>
<polygon points="60,60 70,36 80,60" fill="#60a5fa"/>
<rect x="0" y="58" width="100" height="4" fill="#93c5fd" opacity="0.4"/>
<circle cx="25" cy="22" r="8" fill="#fbbf24"/>
<line x1="25" y1="10" x2="25" y2="14" stroke="#fde68a" stroke-width="2"/>
<line x1="25" y1="30" x2="25" y2="34" stroke="#fde68a" stroke-width="2"/>
<line x1="13" y1="22" x2="17" y2="22" stroke="#fde68a" stroke-width="2"/>
<line x1="33" y1="22" x2="37" y2="22" stroke="#fde68a" stroke-width="2"/>
</svg>