<svg xmlns="http://www.w3.org/2000/svg" viewBox="0 0 100 100">
<rect width="100" height="100" rx="18" fill="#1c0a00"/>
<rect x="20" y="52" width="60" height="36" fill="#d97706"/>
<polygon points="50,14 82,52 18,52" fill="#b45309"/>
<polygon points="50,18 78,52 22,52" fill="#f59e0b"/>
<rect x="60" y="30" width="16" height="22" rx="3" fill="#dc2626"/>
<rect x="20" y="52" width="60" height="4" fill="#92400e"/>
<rect x="38" y="66" width="24" height="22" rx="3" fill="#7c2d12"/>
<rect x="44" y="70" width="6" height="12" rx="1" fill="#fbbf24"/>
<rect x="50" y="70" width="6" height="12" rx="1" fill="#fbbf24"/>
<rect x="24" y="58" width="16" height="12" rx="2" fill="#fde68a"/>
<rect x="60" y="58" width="16" height="12" rx="2" fill="#fde68a"/>
<line x1="32" y1="58" x2="32" y2="70" stroke="#f59e0b" stroke-width="1.5"/>
<line x1="24" y1="64" x2="40" y2="64" stroke="#f59e0b" stroke-width="1.5"/>
<line x1="68" y1="58" x2="68" y2="70" stroke="#f59e0b" stroke-width="1.5"/>
<line x1="60" y1="64" x2="76" y2="64" stroke="#f59e0b" stroke-width="1.5"/>
<rect x="42" y="62" width="2" height="3" rx="1" fill="#fbbf24"/>
</svg>