<svg xmlns="http://www.w3.org/2000/svg" viewBox="0 0 100 100">
<rect width="100" height="100" rx="18" fill="#0c1a2e"/>
<path d="M12 62 L20 40 L36 35 L64 35 L80 40 L88 62 L88 72 L12 72Z" fill="#2563eb"/>
<path d="M20 40 L36 35 L64 35 L80 40 L68 38 L50 36 L32 38Z" fill="#3b82f6"/>
<rect x="26" y="42" width="18" height="14" rx="3" fill="#93c5fd"/>
<rect x="56" y="42" width="18" height="14" rx="3" fill="#93c5fd"/>
<rect x="44" y="44" width="12" height="10" rx="2" fill="#bfdbfe"/>
<rect x="12" y="62" width="76" height="4" rx="2" fill="#1d4ed8"/>
<rect x="12" y="66" width="76" height="6" rx="3" fill="#1e3a8a"/>
<circle cx="26" cy="78" r="9" fill="#0f172a"/>
<circle cx="26" cy="78" r="6" fill="#334155"/>
<circle cx="26" cy="78" r="3" fill="#64748b"/>
<circle cx="74" cy="78" r="9" fill="#0f172a"/>
<circle cx="74" cy="78" r="6" fill="#334155"/>
<circle cx="74" cy="78" r="3" fill="#64748b"/>
<rect x="85" y="55" width="5" height="6" rx="2" fill="#fbbf24"/>
<rect x="10" y="55" width="5" height="6" rx="2" fill="#f97316"/>
</svg>