<svg xmlns="http://www.w3.org/2000/svg" viewBox="0 0 100 100">
<rect width="100" height="100" rx="18" fill="#0a1420"/>
<ellipse cx="50" cy="70" rx="42" ry="18" fill="#1e40af" opacity="0.5"/>
<path d="M50 15 Q65 35 70 55 Q65 75 50 82 Q35 75 30 55 Q35 35 50 15Z" fill="#ef4444"/>
<path d="M50 15 Q60 35 63 55 Q60 72 50 78" fill="#dc2626"/>
<path d="M50 15 Q65 35 70 55 Q65 75 50 82 Q35 75 30 55 Q35 35 50 15Z" fill="none" stroke="#fca5a5" stroke-width="1.5"/>
<circle cx="50" cy="50" r="6" fill="#fde8e8"/>
<path d="M50 30 Q55 40 55 50 Q55 60 50 68" stroke="#fca5a5" stroke-width="1" fill="none"/>
<path d="M42 34 Q40 42 40 50 Q40 58 42 66" stroke="#fca5a5" stroke-width="1" fill="none"/>
<path d="M58 34 Q60 42 60 50 Q60 58 58 66" stroke="#fca5a5" stroke-width="1" fill="none"/>
</svg>