<svg xmlns="http://www.w3.org/2000/svg" viewBox="0 0 100 100">
<rect width="100" height="100" rx="18" fill="#0a1a10"/>
<ellipse cx="50" cy="55" rx="28" ry="22" fill="#374151"/>
<ellipse cx="50" cy="50" rx="24" ry="20" fill="#4b5563"/>
<ellipse cx="50" cy="46" rx="18" ry="14" fill="#6b7280"/>
<ellipse cx="38" cy="42" rx="6" ry="7" fill="white"/>
<ellipse cx="62" cy="42" rx="6" ry="7" fill="white"/>
<ellipse cx="38" cy="44" rx="3" ry="5" fill="#1f2937"/>
<ellipse cx="62" cy="44" rx="3" ry="5" fill="#1f2937"/>
<circle cx="37" cy="42" r="1.2" fill="white"/>
<circle cx="61" cy="42" r="1.2" fill="white"/>
<path d="M32 28 Q34 18 38 20 Q36 24 36 28Z" fill="#374151"/>
<path d="M68 28 Q66 18 62 20 Q64 24 64 28Z" fill="#374151"/>
<ellipse cx="50" cy="54" rx="10" ry="6" fill="#374151"/>
<ellipse cx="50" cy="53" rx="7" ry="4" fill="#9ca3af"/>
<circle cx="46" cy="52" r="1.5" fill="#1f2937"/>
<circle cx="54" cy="52" r="1.5" fill="#1f2937"/>
<path d="M36 36 L32 30 M38 35 L34 28 M40 35 L38 27" stroke="#9ca3af" stroke-width="1" fill="none"/>
<path d="M60 35 L64 29 M62 35 L66 28 M64 35 L68 27" stroke="#9ca3af" stroke-width="1" fill="none"/>
<path d="M40 60 Q50 66 60 60" stroke="#6b7280" stroke-width="2" fill="none" stroke-linecap="round"/>
</svg>