<svg xmlns="http://www.w3.org/2000/svg" viewBox="0 0 100 100">
<rect width="100" height="100" rx="18" fill="#1c0a00"/>
<circle cx="50" cy="48" r="26" fill="#f59e0b"/>
<path d="M24 28 Q20 14 30 12 Q28 22 34 26 Q26 24 24 28Z" fill="#f59e0b"/>
<path d="M76 28 Q80 14 70 12 Q72 22 66 26 Q74 24 76 28Z" fill="#f59e0b"/>
<circle cx="50" cy="48" r="20" fill="#fbbf24"/>
<ellipse cx="38" cy="44" rx="6" ry="7" fill="white"/>
<ellipse cx="62" cy="44" rx="6" ry="7" fill="white"/>
<ellipse cx="38" cy="46" rx="3.5" ry="5" fill="#1c0a00"/>
<ellipse cx="62" cy="46" rx="3.5" ry="5" fill="#1c0a00"/>
<circle cx="37" cy="44" r="1.5" fill="white"/>
<circle cx="61" cy="44" r="1.5" fill="white"/>
<ellipse cx="50" cy="56" rx="8" ry="5" fill="#92400e"/>
<ellipse cx="50" cy="55" rx="6" ry="3" fill="#fde68a"/>
<circle cx="46" cy="53" r="1.5" fill="#1c0a00"/>
<circle cx="54" cy="53" r="1.5" fill="#1c0a00"/>
<path d="M38 62 Q50 70 62 62" stroke="#92400e" stroke-width="2.5" fill="none" stroke-linecap="round"/>
<path d="M24 44 Q18 46 20 52 Q22 48 24 46Z" fill="#f59e0b"/>
<path d="M76 44 Q82 46 80 52 Q78 48 76 46Z" fill="#f59e0b"/>
</svg>