<svg xmlns="http://www.w3.org/2000/svg" viewBox="0 0 100 100">
<rect width="100" height="100" rx="18" fill="#0a1a10"/>
<path d="M50 16 Q68 30 74 50 Q68 70 50 84 Q32 70 26 50 Q32 30 50 16Z" fill="#16a34a"/>
<path d="M50 16 Q60 30 64 50 Q60 70 50 84" fill="#15803d"/>
<path d="M50 16 Q58 28 60 50 Q58 72 50 84 Q42 72 40 50 Q42 28 50 16Z" fill="#22c55e"/>
<path d="M26 50 Q50 42 74 50 Q50 46 26 50Z" fill="#4ade80" opacity="0.6"/>
<path d="M28 38 Q50 32 72 38" stroke="#86efac" stroke-width="1.5" fill="none" opacity="0.5"/>
<path d="M28 62 Q50 68 72 62" stroke="#86efac" stroke-width="1.5" fill="none" opacity="0.5"/>
<circle cx="50" cy="50" r="5" fill="#f0fdf4"/>
</svg>