<svg xmlns="http://www.w3.org/2000/svg" viewBox="0 0 100 100">
<rect width="100" height="100" rx="18" fill="#1a0a1e"/>
<path d="M32 80 L32 32 Q50 18 68 32 L68 80Z" fill="#7e22ce"/>
<path d="M32 32 Q50 22 68 32 Q50 26 32 32Z" fill="#a855f7"/>
<ellipse cx="50" cy="80" rx="18" ry="6" fill="#6b21a8"/>
<rect x="28" y="38" width="12" height="8" rx="2" fill="#c4b5fd"/>
<rect x="60" y="38" width="12" height="8" rx="2" fill="#c4b5fd"/>
<rect x="28" y="52" width="12" height="8" rx="2" fill="#a78bfa"/>
<rect x="60" y="52" width="12" height="8" rx="2" fill="#a78bfa"/>
<rect x="28" y="66" width="12" height="8" rx="2" fill="#8b5cf6"/>
<rect x="60" y="66" width="12" height="8" rx="2" fill="#8b5cf6"/>
<rect x="36" y="24" width="28" height="6" rx="3" fill="#c084fc"/>
<circle cx="50" cy="27" r="8" fill="#e9d5ff"/>
<circle cx="50" cy="27" r="5" fill="#d8b4fe"/>
<circle cx="50" cy="27" r="2.5" fill="#a855f7"/>
</svg>