<svg xmlns="http://www.w3.org/2000/svg" viewBox="0 0 100 100">
<rect width="100" height="100" rx="18" fill="#0a1a10"/>
<rect x="30" y="30" width="40" height="50" rx="4" fill="#15803d"/>
<rect x="30" y="30" width="40" height="8" rx="4" fill="#166534"/>
<rect x="34" y="42" width="10" height="8" rx="2" fill="#86efac"/>
<rect x="48" y="42" width="10" height="8" rx="2" fill="#86efac"/>
<rect x="62" y="42" width="4" height="8" rx="2" fill="#86efac"/>
<rect x="34" y="54" width="28" height="2" rx="1" fill="#4ade80"/>
<rect x="34" y="58" width="28" height="2" rx="1" fill="#4ade80"/>
<rect x="34" y="62" width="20" height="2" rx="1" fill="#4ade80"/>
<rect x="20" y="72" width="60" height="8" rx="4" fill="#166534"/>
<circle cx="26" cy="76" r="5" fill="#0f2d1a"/>
<circle cx="74" cy="76" r="5" fill="#0f2d1a"/>
<path d="M40 26 Q50 16 60 26" stroke="#22c55e" stroke-width="3" fill="none" stroke-linecap="round"/>
<circle cx="50" cy="20" r="4" fill="#4ade80"/>
</svg>