<svg xmlns="http://www.w3.org/2000/svg" viewBox="0 0 100 100">
<rect width="100" height="100" rx="18" fill="#1a0a2e"/>
<path d="M50 14 L62 42 L92 42 L68 60 L78 88 L50 70 L22 88 L32 60 L8 42 L38 42Z" fill="none" stroke="#8b5cf6" stroke-width="2.5"/>
<path d="M50 24 L59 44 L82 44 L64 57 L71 80 L50 67 L29 80 L36 57 L18 44 L41 44Z" fill="#7c3aed" opacity="0.5"/>
<circle cx="50" cy="14" r="3.5" fill="#c4b5fd"/>
<circle cx="92" cy="42" r="3.5" fill="#c4b5fd"/>
<circle cx="78" cy="88" r="3.5" fill="#c4b5fd"/>
<circle cx="22" cy="88" r="3.5" fill="#c4b5fd"/>
<circle cx="8" cy="42" r="3.5" fill="#c4b5fd"/>
<circle cx="50" cy="52" r="8" fill="#a78bfa"/>
<circle cx="50" cy="52" r="4" fill="#ede9fe"/>
</svg>