<svg xmlns="http://www.w3.org/2000/svg" viewBox="0 0 100 100">
<rect width="100" height="100" rx="18" fill="#0a0a1e"/>
<path d="M50 14 L58 32 L76 34 L63 47 L66 66 L50 58 L34 66 L37 47 L24 34 L42 32Z" fill="none" stroke="#f59e0b" stroke-width="2"/>
<path d="M50 20 L56 32 L70 34 L61 43 L63 58 L50 52 L37 58 L39 43 L30 34 L44 32Z" fill="#78350f" opacity="0.5"/>
<circle cx="50" cy="14" r="3" fill="#fde68a"/>
<circle cx="76" cy="34" r="3" fill="#fde68a"/>
<circle cx="66" cy="66" r="3" fill="#fde68a"/>
<circle cx="34" cy="66" r="3" fill="#fde68a"/>
<circle cx="24" cy="34" r="3" fill="#fde68a"/>
<circle cx="50" cy="42" r="6" fill="#f59e0b"/>
<path d="M26 74 Q50 88 74 74" stroke="#f59e0b" stroke-width="2.5" fill="none" stroke-linecap="round"/>
<path d="M20 80 Q50 94 80 80" stroke="#fbbf24" stroke-width="1.5" fill="none" stroke-linecap="round" opacity="0.5"/>
</svg>