<svg xmlns="http://www.w3.org/2000/svg" viewBox="0 0 100 100">
<rect width="100" height="100" rx="18" fill="#0a1428"/>
<rect x="0" y="62" width="100" height="38" fill="#1e3a8a" opacity="0.5"/>
<rect x="22" y="36" width="16" height="36" fill="#334155"/>
<rect x="42" y="26" width="16" height="46" fill="#475569"/>
<rect x="62" y="40" width="16" height="32" fill="#334155"/>
<rect x="10" y="50" width="14" height="24" fill="#1e293b"/>
<rect x="76" y="46" width="14" height="28" fill="#1e293b"/>
<rect x="24" y="42" width="4" height="6" rx="1" fill="#93c5fd"/>
<rect x="30" y="42" width="4" height="6" rx="1" fill="#93c5fd"/>
<rect x="44" y="32" width="4" height="6" rx="1" fill="#bfdbfe"/>
<rect x="50" y="32" width="4" height="6" rx="1" fill="#bfdbfe"/>
<rect x="44" y="44" width="4" height="6" rx="1" fill="#93c5fd"/>
<rect x="50" y="44" width="4" height="6" rx="1" fill="#93c5fd"/>
<rect x="64" y="48" width="4" height="6" rx="1" fill="#7dd3fc"/>
<rect x="70" y="48" width="4" height="6" rx="1" fill="#7dd3fc"/>
<rect x="0" y="80" width="100" height="4" fill="#0f2a5a"/>
<circle cx="50" cy="18" r="5" fill="#fbbf24"/>
</svg>