<svg xmlns="http://www.w3.org/2000/svg" viewBox="0 0 100 100">
<rect width="100" height="100" rx="18" fill="#1a1200"/>
<rect x="0" y="68" width="100" height="32" fill="#92400e" opacity="0.5"/>
<polygon points="50,10 56,34 82,34 62,50 70,74 50,58 30,74 38,50 18,34 44,34" fill="#f59e0b"/>
<circle cx="50" cy="10" r="5" fill="#fde68a"/>
<circle cx="82" cy="34" r="3.5" fill="#fde68a"/>
<circle cx="70" cy="74" r="3.5" fill="#fde68a"/>
<circle cx="30" cy="74" r="3.5" fill="#fde68a"/>
<circle cx="18" cy="34" r="3.5" fill="#fde68a"/>
<polygon points="50,20 54,34 68,34 58,44 62,58 50,50 38,58 42,44 32,34 46,34" fill="#fbbf24"/>
<circle cx="50" cy="42" r="7" fill="#fde68a"/>
<circle cx="50" cy="42" r="4" fill="#f59e0b"/>
</svg>