<svg xmlns="http://www.w3.org/2000/svg" viewBox="0 0 100 100">
<rect width="100" height="100" rx="18" fill="#0a1e0a"/>
<rect x="18" y="16" width="64" height="68" rx="6" fill="#166534"/>
<rect x="22" y="20" width="56" height="60" rx="4" fill="#14532d"/>
<rect x="26" y="24" width="48" height="10" rx="2" fill="#15803d"/>
<rect x="28" y="26" width="8" height="6" rx="1" fill="#86efac"/>
<rect x="38" y="26" width="8" height="6" rx="1" fill="#4ade80"/>
<rect x="48" y="26" width="8" height="6" rx="1" fill="#86efac"/>
<rect x="58" y="26" width="12" height="6" rx="1" fill="#22c55e"/>
<rect x="26" y="38" width="44" height="3" rx="1.5" fill="#166534"/>
<rect x="26" y="44" width="44" height="3" rx="1.5" fill="#16a34a"/>
<rect x="26" y="50" width="30" height="3" rx="1.5" fill="#166534"/>
<rect x="26" y="56" width="44" height="3" rx="1.5" fill="#15803d"/>
<rect x="26" y="62" width="22" height="3" rx="1.5" fill="#166534"/>
<rect x="38" y="72" width="24" height="4" rx="2" fill="#166534"/>
<rect x="34" y="74" width="32" height="6" rx="3" fill="#14532d"/>
<circle cx="74" cy="20" r="5" fill="#4ade80" opacity="0.6"/>
</svg>