<svg xmlns="http://www.w3.org/2000/svg" viewBox="0 0 100 100">
<rect width="100" height="100" rx="18" fill="#1a0a00"/>
<ellipse cx="50" cy="62" rx="34" ry="12" fill="#92400e"/>
<ellipse cx="50" cy="62" rx="30" ry="10" fill="#a16207"/>
<ellipse cx="50" cy="60" rx="26" ry="9" fill="#b45309"/>
<path d="M50 20 L58 44 L50 40 L42 44Z" fill="#f97316"/>
<path d="M50 28 L54 42 L50 39 L46 42Z" fill="#fdba74"/>
<path d="M30 35 L44 48 L38 46 L34 50Z" fill="#f97316"/>
<path d="M70 35 L56 48 L62 46 L66 50Z" fill="#f97316"/>
<ellipse cx="50" cy="58" rx="16" ry="6" fill="#d97706"/>
<circle cx="44" cy="57" r="2.5" fill="#78350f"/>
<circle cx="56" cy="57" r="2.5" fill="#78350f"/>
<circle cx="50" cy="62" r="2" fill="#7c2d12"/>
</svg>