<svg xmlns="http://www.w3.org/2000/svg" viewBox="0 0 100 100">
<rect width="100" height="100" rx="18" fill="#0a1628"/>
<path d="M50 14 Q72 26 78 50 Q72 74 50 86 Q28 74 22 50 Q28 26 50 14Z" fill="none" stroke="#06b6d4" stroke-width="2.5"/>
<path d="M50 22 Q66 32 70 50 Q66 68 50 78 Q34 68 30 50 Q34 32 50 22Z" fill="none" stroke="#22d3ee" stroke-width="1.5"/>
<path d="M50 30 Q60 38 62 50 Q60 62 50 70 Q40 62 38 50 Q40 38 50 30Z" fill="#0e7490" opacity="0.5"/>
<circle cx="50" cy="50" r="8" fill="#06b6d4"/>
<circle cx="50" cy="50" r="4" fill="#a5f3fc"/>
<circle cx="50" cy="14" r="3" fill="#67e8f9"/>
<circle cx="78" cy="50" r="3" fill="#67e8f9"/>
<circle cx="50" cy="86" r="3" fill="#67e8f9"/>
<circle cx="22" cy="50" r="3" fill="#67e8f9"/>
</svg>