<svg xmlns="http://www.w3.org/2000/svg" viewBox="0 0 100 100">
<rect width="100" height="100" rx="18" fill="#0a1e0a"/>
<path d="M20 78 Q30 50 50 40 Q70 50 80 78" fill="#166534" opacity="0.5"/>
<ellipse cx="50" cy="68" rx="30" ry="6" fill="#14532d"/>
<path d="M20 68 Q30 50 50 44 Q70 50 80 68" fill="#15803d"/>
<path d="M26 64 Q38 50 50 46 Q62 50 74 64" fill="#16a34a"/>
<path d="M32 60 Q42 50 50 48 Q58 50 68 60" fill="#22c55e"/>
<circle cx="50" cy="52" r="6" fill="#4ade80"/>
<path d="M44 52 Q50 44 56 52" fill="none" stroke="#86efac" stroke-width="1.5"/>
<rect x="46" y="68" width="8" height="14" rx="3" fill="#92400e"/>
<ellipse cx="50" cy="68" rx="7" ry="4" fill="#15803d"/>
</svg>